<?xml version="1.0" encoding="utf-8"?>
<!-- Generator: Adobe Illustrator 22.1.0, SVG Export Plug-In . SVG Version: 6.00 Build 0)  -->
<svg version="1.1" id="Layer_1" xmlns="http://www.w3.org/2000/svg" xmlns:xlink="http://www.w3.org/1999/xlink" x="0px" y="0px"
	 viewBox="0 0 24 24" style="enable-background:new 0 0 24 24;" xml:space="preserve">
<style type="text/css">
	.st0{fill:#FAEBD7;}
</style>
<path class="st0" d="M16,6l0-1.8c0-2.1-1.5-4-3.6-4.2C10-0.2,8,1.7,8,4v2c0,0,0,0,0,0H3c0,0,0,0,0,0V24c0,0,0,0,0,0H21c0,0,0,0,0,0
	V6c0,0,0,0,0,0L16,6C16,6,16,6,16,6z M9,4c0-1.8,1.7-3.3,3.6-2.9C14,1.3,15,2.7,15,4.2L15,6c0,0,0,0,0,0H9c0,0,0,0,0,0V4z M20,23.1
	H3.9c0,0,0,0,0,0V7c0,0,0,0,0,0h3.4c0,0,0,0,0,0v1.7c0,0.3,0.3,0.6,0.6,0.6c0.3,0,0.6-0.3,0.6-0.6V7c0,0,0,0,0,0h6.8c0,0,0,0,0,0
	v1.7c0,0.3,0.3,0.6,0.6,0.6c0.3,0,0.6-0.3,0.6-0.6V7c0,0,0,0,0,0H20c0,0,0,0,0,0L20,23.1C20.1,23.1,20.1,23.1,20,23.1z"/>
</svg>
